REM GENRE "Black Metal"
REM DATE 2009
REM DISCID 990E180C
REM COMMENT "ExactAudioCopy v0.99pb5"
PERFORMER "DODSENGEL"
TITLE "Visionary"
FILE "DODSENGEL - Visionary.flac" WAVE
  TRACK 01 AUDIO
    TITLE "Apenbaring"
    PERFORMER "DODSENGEL"
    INDEX 01 00:00:00
  TRACK 02 AUDIO
    TITLE "Word of Uncreation"
    PERFORMER "DODSENGEL"
    INDEX 01 02:52:47
  TRACK 03 AUDIO
    TITLE "Void"
    PERFORMER "DODSENGEL"
    INDEX 01 08:57:43
  TRACK 04 AUDIO
    TITLE "Djevelens Lys"
    PERFORMER "DODSENGEL"
    INDEX 01 16:54:15
  TRACK 05 AUDIO
    TITLE "The Opposing Ideal"
    PERFORMER "DODSENGEL"
    INDEX 01 21:50:02
  TRACK 06 AUDIO
    TITLE "Warfare by Witchcraft"
    PERFORMER "DODSENGEL"
    INDEX 01 28:19:22
  TRACK 07 AUDIO
    TITLE "Interlude"
    PERFORMER "DODSENGEL"
    INDEX 01 33:05:15
  TRACK 08 AUDIO
    TITLE "Raziel"
    PERFORMER "DODSENGEL"
    INDEX 01 33:54:23
  TRACK 09 AUDIO
    TITLE "En Hyllest"
    PERFORMER "DODSENGEL"
    INDEX 01 40:25:13
  TRACK 10 AUDIO
    TITLE "Frelserens Ord"
    PERFORMER "DODSENGEL"
    INDEX 01 45:11:06
  TRACK 11 AUDIO
    TITLE "Glorious Salvation"
    PERFORMER "DODSENGEL"
    INDEX 01 48:47:17
  TRACK 12 AUDIO
    TITLE "Torner I Snoen"
    PERFORMER "DODSENGEL"
    INDEX 01 55:49:10
